<?xml version="1.0" encoding="UTF-8"?> <svg xmlns="http://www.w3.org/2000/svg" width="50" height="50" viewBox="0 0 50 50" fill="none"><circle cx="25" cy="25" r="25" fill="#000"></circle><path d="m36.671 31.23-8.978-15.947a2.571 2.571 0 0 0-.93-.94 2.498 2.498 0 0 0-2.525 0 2.571 2.571 0 0 0-.93.94L14.33 31.23a2.512 2.512 0 0 0 0 2.49c.221.394.54.72.926.945.385.224.822.34 1.266.336h17.957c.444.004.88-.112 1.265-.337.385-.225.704-.55.925-.943a2.512 2.512 0 0 0 .002-2.49zm-1.424 1.649a.883.883 0 0 1-.325.327.858.858 0 0 1-.443.114H16.522a.858.858 0 0 1-.443-.114.883.883 0 0 1-.325-.327.81.81 0 0 1 0-.81l8.979-15.947a.908.908 0 0 1 .327-.326.882.882 0 0 1 .885 0c.135.078.248.19.328.326l8.978 15.946a.81.81 0 0 1-.004.81zm-10.568-6.28V22.4a.85.85 0 0 1 .24-.594.812.812 0 0 1 1.162 0 .85.85 0 0 1 .24.594v4.2a.85.85 0 0 1-.24.594.812.812 0 0 1-1.161 0 .85.85 0 0 1-.24-.594zm2.054 3.78c0 .25-.073.494-.208.7a1.238 1.238 0 0 1-.553.465 1.207 1.207 0 0 1-1.343-.273 1.287 1.287 0 0 1-.267-1.373c.093-.23.251-.427.454-.566a1.212 1.212 0 0 1 1.556.157c.23.236.36.557.36.89z" fill="#F5C94A"></path></svg> 